<?xml version="1.0" encoding="utf-8"?>
<!-- Generator: Adobe Illustrator 16.0.0, SVG Export Plug-In . SVG Version: 6.00 Build 0)  -->
<!DOCTYPE svg PUBLIC "-//W3C//DTD SVG 1.1//EN" "http://www.w3.org/Graphics/SVG/1.1/DTD/svg11.dtd">
<svg version="1.1" id="Layer_1" xmlns="http://www.w3.org/2000/svg" xmlns:xlink="http://www.w3.org/1999/xlink" x="0px" y="0px"
	 width="10px" height="10px" viewBox="0 0 10 10" enable-background="new 0 0 10 10" xml:space="preserve">
<path d="M590.005,767.482c0-0.067-0.026-0.13-0.073-0.177c-0.095-0.097-0.262-0.095-0.354-0.001l-2.975,2.975
	c-0.048,0.048-0.074,0.111-0.074,0.178c0,0.067,0.026,0.131,0.073,0.178l2.912,2.911c0.048,0.048,0.11,0.074,0.178,0.074
	c0.066,0,0.13-0.026,0.178-0.074c0.047-0.047,0.073-0.11,0.073-0.178c0-0.066-0.026-0.13-0.073-0.177l-2.734-2.734l2.797-2.797
	C589.979,767.612,590.005,767.549,590.005,767.482z"/>
<path d="M5.355,4.999l2.766-2.766c0.098-0.098,0.098-0.257,0-0.355c-0.096-0.095-0.26-0.095-0.355,0.001L5,4.644L2.235,1.879
	c-0.095-0.096-0.26-0.096-0.354,0c-0.099,0.098-0.099,0.257,0,0.354l2.765,2.766L1.879,7.765C1.782,7.862,1.782,8.021,1.88,8.12
	c0.095,0.095,0.259,0.095,0.354,0L5,5.354L7.766,8.12c0.049,0.047,0.111,0.073,0.178,0.073c0.068,0,0.131-0.026,0.178-0.074
	c0.098-0.098,0.098-0.257,0-0.354L5.355,4.999z"/>
</svg>
